<mxfile host="app.diagrams.net" modified="2023-11-16T22:49:17.754Z" agent="Mozilla/5.0 (Windows NT 10.0; Win64; x64) AppleWebKit/537.36 (KHTML, like Gecko) Chrome/119.0.0.0 Safari/537.36 Edg/119.0.0.0" etag="UxI55Fb3-fqpYis-v6rA" version="22.1.2" type="device">
  <diagram name="Page-1" id="q17DKDiXmMCJJl4ZwLc4">
    <mxGraphModel dx="1117" dy="601" grid="1" gridSize="10" guides="1" tooltips="1" connect="1" arrows="1" fold="1" page="1" pageScale="1" pageWidth="2339" pageHeight="3300" math="0" shadow="0">
      <root>
        <mxCell id="0" />
        <mxCell id="1" parent="0" />
        <mxCell id="7t0NmyDC2NJlsHodAtWq-1" value="&lt;b&gt;Property&lt;/b&gt;" style="whiteSpace=wrap;html=1;align=center;" vertex="1" parent="1">
          <mxGeometry x="190" y="290" width="100" height="40" as="geometry" />
        </mxCell>
        <mxCell id="7t0NmyDC2NJlsHodAtWq-3" value="" style="endArrow=none;html=1;rounded=0;exitX=0.5;exitY=1;exitDx=0;exitDy=0;entryX=0.25;entryY=0;entryDx=0;entryDy=0;" edge="1" parent="1" source="7t0NmyDC2NJlsHodAtWq-14" target="7t0NmyDC2NJlsHodAtWq-1">
          <mxGeometry relative="1" as="geometry">
            <mxPoint x="160" y="260" as="sourcePoint" />
            <mxPoint x="580" y="470" as="targetPoint" />
          </mxGeometry>
        </mxCell>
        <mxCell id="7t0NmyDC2NJlsHodAtWq-4" value="&lt;b&gt;Loaction&lt;/b&gt;" style="ellipse;whiteSpace=wrap;html=1;align=center;" vertex="1" parent="1">
          <mxGeometry x="220" y="220" width="100" height="40" as="geometry" />
        </mxCell>
        <mxCell id="7t0NmyDC2NJlsHodAtWq-5" value="" style="endArrow=none;html=1;rounded=0;exitX=0.5;exitY=1;exitDx=0;exitDy=0;entryX=0.5;entryY=0;entryDx=0;entryDy=0;" edge="1" parent="1" source="7t0NmyDC2NJlsHodAtWq-4" target="7t0NmyDC2NJlsHodAtWq-1">
          <mxGeometry relative="1" as="geometry">
            <mxPoint x="175" y="284" as="sourcePoint" />
            <mxPoint x="250" y="330" as="targetPoint" />
          </mxGeometry>
        </mxCell>
        <mxCell id="7t0NmyDC2NJlsHodAtWq-6" value="&lt;b&gt;address&lt;/b&gt;&lt;span id=&quot;docs-internal-guid-22aa97f3-7fff-5628-ff60-64329fbdb07a&quot;&gt;&lt;/span&gt;&lt;span id=&quot;docs-internal-guid-22aa97f3-7fff-5628-ff60-64329fbdb07a&quot;&gt;&lt;/span&gt;" style="ellipse;whiteSpace=wrap;html=1;align=center;" vertex="1" parent="1">
          <mxGeometry x="190" y="120" width="100" height="40" as="geometry" />
        </mxCell>
        <mxCell id="7t0NmyDC2NJlsHodAtWq-7" value="" style="endArrow=none;html=1;rounded=0;exitX=0.5;exitY=1;exitDx=0;exitDy=0;" edge="1" parent="1" source="7t0NmyDC2NJlsHodAtWq-6" target="7t0NmyDC2NJlsHodAtWq-4">
          <mxGeometry relative="1" as="geometry">
            <mxPoint x="285" y="284" as="sourcePoint" />
            <mxPoint x="370" y="350" as="targetPoint" />
          </mxGeometry>
        </mxCell>
        <mxCell id="7t0NmyDC2NJlsHodAtWq-8" value="&lt;b&gt;city&lt;/b&gt;&lt;span id=&quot;docs-internal-guid-22aa97f3-7fff-5628-ff60-64329fbdb07a&quot;&gt;&lt;/span&gt;&lt;span id=&quot;docs-internal-guid-22aa97f3-7fff-5628-ff60-64329fbdb07a&quot;&gt;&lt;/span&gt;" style="ellipse;whiteSpace=wrap;html=1;align=center;" vertex="1" parent="1">
          <mxGeometry x="300" y="120" width="100" height="40" as="geometry" />
        </mxCell>
        <mxCell id="7t0NmyDC2NJlsHodAtWq-9" value="" style="endArrow=none;html=1;rounded=0;exitX=0.5;exitY=1;exitDx=0;exitDy=0;" edge="1" parent="1" source="7t0NmyDC2NJlsHodAtWq-8" target="7t0NmyDC2NJlsHodAtWq-4">
          <mxGeometry relative="1" as="geometry">
            <mxPoint x="405" y="284" as="sourcePoint" />
            <mxPoint x="377" y="221" as="targetPoint" />
          </mxGeometry>
        </mxCell>
        <mxCell id="7t0NmyDC2NJlsHodAtWq-14" value="&lt;b style=&quot;border-color: var(--border-color);&quot;&gt;Property_ID&lt;/b&gt;" style="ellipse;whiteSpace=wrap;html=1;align=center;fontStyle=4;" vertex="1" parent="1">
          <mxGeometry x="110" y="220" width="100" height="40" as="geometry" />
        </mxCell>
        <mxCell id="7t0NmyDC2NJlsHodAtWq-15" value="&lt;span id=&quot;docs-internal-guid-ec5396cc-7fff-41a8-6c5f-3108510f86a9&quot;&gt;&lt;/span&gt;&lt;span id=&quot;docs-internal-guid-ec5396cc-7fff-41a8-6c5f-3108510f86a9&quot;&gt;&lt;/span&gt;&lt;span id=&quot;docs-internal-guid-ec5396cc-7fff-41a8-6c5f-3108510f86a9&quot;&gt;&lt;/span&gt;&lt;b&gt;sales office&lt;br&gt;&lt;/b&gt;" style="whiteSpace=wrap;html=1;align=center;" vertex="1" parent="1">
          <mxGeometry x="760" y="290" width="100" height="40" as="geometry" />
        </mxCell>
        <mxCell id="7t0NmyDC2NJlsHodAtWq-16" value="" style="endArrow=none;html=1;rounded=0;exitX=0.5;exitY=1;exitDx=0;exitDy=0;entryX=0.25;entryY=0;entryDx=0;entryDy=0;" edge="1" parent="1" source="7t0NmyDC2NJlsHodAtWq-27" target="7t0NmyDC2NJlsHodAtWq-15">
          <mxGeometry relative="1" as="geometry">
            <mxPoint x="730" y="240" as="sourcePoint" />
            <mxPoint x="1150" y="450" as="targetPoint" />
          </mxGeometry>
        </mxCell>
        <mxCell id="7t0NmyDC2NJlsHodAtWq-17" value="&lt;b&gt;Location&lt;/b&gt;&lt;span id=&quot;docs-internal-guid-22aa97f3-7fff-5628-ff60-64329fbdb07a&quot;&gt;&lt;/span&gt;&lt;span id=&quot;docs-internal-guid-22aa97f3-7fff-5628-ff60-64329fbdb07a&quot;&gt;&lt;/span&gt;" style="ellipse;whiteSpace=wrap;html=1;align=center;" vertex="1" parent="1">
          <mxGeometry x="820" y="200" width="100" height="40" as="geometry" />
        </mxCell>
        <mxCell id="7t0NmyDC2NJlsHodAtWq-18" value="" style="endArrow=none;html=1;rounded=0;exitX=0.5;exitY=1;exitDx=0;exitDy=0;entryX=0.5;entryY=0;entryDx=0;entryDy=0;" edge="1" parent="1" source="7t0NmyDC2NJlsHodAtWq-17" target="7t0NmyDC2NJlsHodAtWq-15">
          <mxGeometry relative="1" as="geometry">
            <mxPoint x="745" y="264" as="sourcePoint" />
            <mxPoint x="820" y="310" as="targetPoint" />
          </mxGeometry>
        </mxCell>
        <mxCell id="7t0NmyDC2NJlsHodAtWq-27" value="&lt;b&gt;Office_Number&lt;/b&gt;" style="ellipse;whiteSpace=wrap;html=1;align=center;fontStyle=4;" vertex="1" parent="1">
          <mxGeometry x="680" y="200" width="100" height="40" as="geometry" />
        </mxCell>
        <mxCell id="7t0NmyDC2NJlsHodAtWq-95" value="&lt;b&gt;Owner&lt;/b&gt;" style="whiteSpace=wrap;html=1;align=center;" vertex="1" parent="1">
          <mxGeometry x="190" y="520" width="100" height="40" as="geometry" />
        </mxCell>
        <mxCell id="7t0NmyDC2NJlsHodAtWq-97" value="&lt;b&gt;Owner_Name&lt;/b&gt;" style="ellipse;whiteSpace=wrap;html=1;align=center;" vertex="1" parent="1">
          <mxGeometry x="110" y="620" width="100" height="40" as="geometry" />
        </mxCell>
        <mxCell id="7t0NmyDC2NJlsHodAtWq-98" value="" style="endArrow=none;html=1;rounded=0;exitX=0.5;exitY=0;exitDx=0;exitDy=0;entryX=0.159;entryY=0.965;entryDx=0;entryDy=0;entryPerimeter=0;" edge="1" parent="1" source="7t0NmyDC2NJlsHodAtWq-97" target="7t0NmyDC2NJlsHodAtWq-95">
          <mxGeometry relative="1" as="geometry">
            <mxPoint x="565" y="579" as="sourcePoint" />
            <mxPoint x="365" y="535" as="targetPoint" />
          </mxGeometry>
        </mxCell>
        <mxCell id="7t0NmyDC2NJlsHodAtWq-100" value="" style="endArrow=none;html=1;rounded=0;exitX=0.5;exitY=0;exitDx=0;exitDy=0;entryX=0.556;entryY=0.997;entryDx=0;entryDy=0;entryPerimeter=0;" edge="1" parent="1" source="7t0NmyDC2NJlsHodAtWq-170" target="7t0NmyDC2NJlsHodAtWq-95">
          <mxGeometry relative="1" as="geometry">
            <mxPoint x="270" y="620" as="sourcePoint" />
            <mxPoint x="315" y="380" as="targetPoint" />
          </mxGeometry>
        </mxCell>
        <mxCell id="7t0NmyDC2NJlsHodAtWq-110" value="&lt;b&gt;Employee&lt;/b&gt;" style="whiteSpace=wrap;html=1;align=center;" vertex="1" parent="1">
          <mxGeometry x="760" y="580" width="100" height="40" as="geometry" />
        </mxCell>
        <mxCell id="7t0NmyDC2NJlsHodAtWq-111" value="&lt;b&gt;Employee_Name&lt;/b&gt;" style="ellipse;whiteSpace=wrap;html=1;align=center;" vertex="1" parent="1">
          <mxGeometry x="700" y="680" width="100" height="40" as="geometry" />
        </mxCell>
        <mxCell id="7t0NmyDC2NJlsHodAtWq-112" value="" style="endArrow=none;html=1;rounded=0;exitX=0.5;exitY=0;exitDx=0;exitDy=0;entryX=0.25;entryY=1;entryDx=0;entryDy=0;" edge="1" parent="1" source="7t0NmyDC2NJlsHodAtWq-111" target="7t0NmyDC2NJlsHodAtWq-110">
          <mxGeometry relative="1" as="geometry">
            <mxPoint x="1135" y="639" as="sourcePoint" />
            <mxPoint x="935" y="595" as="targetPoint" />
          </mxGeometry>
        </mxCell>
        <mxCell id="7t0NmyDC2NJlsHodAtWq-113" value="" style="endArrow=none;html=1;rounded=0;exitX=0.5;exitY=0;exitDx=0;exitDy=0;entryX=0.556;entryY=0.997;entryDx=0;entryDy=0;entryPerimeter=0;" edge="1" parent="1" source="7t0NmyDC2NJlsHodAtWq-145" target="7t0NmyDC2NJlsHodAtWq-110">
          <mxGeometry relative="1" as="geometry">
            <mxPoint x="880" y="680" as="sourcePoint" />
            <mxPoint x="885" y="440" as="targetPoint" />
          </mxGeometry>
        </mxCell>
        <mxCell id="7t0NmyDC2NJlsHodAtWq-145" value="&lt;b style=&quot;border-color: var(--border-color);&quot;&gt;Employee_ID&lt;/b&gt;" style="ellipse;whiteSpace=wrap;html=1;align=center;fontStyle=4;" vertex="1" parent="1">
          <mxGeometry x="835" y="680" width="100" height="40" as="geometry" />
        </mxCell>
        <mxCell id="7t0NmyDC2NJlsHodAtWq-146" value="&lt;b&gt;Is assigned to&lt;/b&gt;" style="shape=rhombus;perimeter=rhombusPerimeter;whiteSpace=wrap;html=1;align=center;" vertex="1" parent="1">
          <mxGeometry x="680" y="422" width="120" height="60" as="geometry" />
        </mxCell>
        <mxCell id="7t0NmyDC2NJlsHodAtWq-147" value="" style="shape=link;html=1;rounded=0;exitX=0.25;exitY=1;exitDx=0;exitDy=0;entryX=0.5;entryY=0;entryDx=0;entryDy=0;" edge="1" parent="1" source="7t0NmyDC2NJlsHodAtWq-15" target="7t0NmyDC2NJlsHodAtWq-146">
          <mxGeometry relative="1" as="geometry">
            <mxPoint x="740" y="342" as="sourcePoint" />
            <mxPoint x="670" y="442" as="targetPoint" />
          </mxGeometry>
        </mxCell>
        <mxCell id="7t0NmyDC2NJlsHodAtWq-148" value="" style="resizable=0;html=1;whiteSpace=wrap;align=right;verticalAlign=bottom;" connectable="0" vertex="1" parent="7t0NmyDC2NJlsHodAtWq-147">
          <mxGeometry x="1" relative="1" as="geometry" />
        </mxCell>
        <mxCell id="7t0NmyDC2NJlsHodAtWq-149" value="" style="shape=link;html=1;rounded=0;exitX=0.5;exitY=1;exitDx=0;exitDy=0;entryX=0.25;entryY=0;entryDx=0;entryDy=0;" edge="1" parent="1" source="7t0NmyDC2NJlsHodAtWq-146" target="7t0NmyDC2NJlsHodAtWq-110">
          <mxGeometry relative="1" as="geometry">
            <mxPoint x="739.55" y="492" as="sourcePoint" />
            <mxPoint x="739.55" y="572" as="targetPoint" />
          </mxGeometry>
        </mxCell>
        <mxCell id="7t0NmyDC2NJlsHodAtWq-150" value="" style="resizable=0;html=1;whiteSpace=wrap;align=right;verticalAlign=bottom;" connectable="0" vertex="1" parent="7t0NmyDC2NJlsHodAtWq-149">
          <mxGeometry x="1" relative="1" as="geometry">
            <mxPoint y="20" as="offset" />
          </mxGeometry>
        </mxCell>
        <mxCell id="7t0NmyDC2NJlsHodAtWq-151" value="&lt;b&gt;1&lt;/b&gt;" style="text;html=1;align=center;verticalAlign=middle;resizable=0;points=[];autosize=1;strokeColor=none;fillColor=none;" vertex="1" parent="1">
          <mxGeometry x="750" y="330" width="30" height="30" as="geometry" />
        </mxCell>
        <mxCell id="7t0NmyDC2NJlsHodAtWq-152" value="&lt;b&gt;m&lt;/b&gt;" style="text;html=1;align=center;verticalAlign=middle;resizable=0;points=[];autosize=1;strokeColor=none;fillColor=none;" vertex="1" parent="1">
          <mxGeometry x="750" y="550" width="30" height="30" as="geometry" />
        </mxCell>
        <mxCell id="7t0NmyDC2NJlsHodAtWq-153" value="&lt;b&gt;Manages&lt;/b&gt;" style="shape=rhombus;perimeter=rhombusPerimeter;whiteSpace=wrap;html=1;align=center;" vertex="1" parent="1">
          <mxGeometry x="815" y="422" width="120" height="60" as="geometry" />
        </mxCell>
        <mxCell id="7t0NmyDC2NJlsHodAtWq-154" value="" style="shape=link;html=1;rounded=0;exitX=0.75;exitY=1;exitDx=0;exitDy=0;entryX=0.5;entryY=0;entryDx=0;entryDy=0;" edge="1" parent="1" source="7t0NmyDC2NJlsHodAtWq-15">
          <mxGeometry relative="1" as="geometry">
            <mxPoint x="915" y="330" as="sourcePoint" />
            <mxPoint x="870" y="422" as="targetPoint" />
          </mxGeometry>
        </mxCell>
        <mxCell id="7t0NmyDC2NJlsHodAtWq-155" value="" style="resizable=0;html=1;whiteSpace=wrap;align=right;verticalAlign=bottom;" connectable="0" vertex="1" parent="7t0NmyDC2NJlsHodAtWq-154">
          <mxGeometry x="1" relative="1" as="geometry" />
        </mxCell>
        <mxCell id="7t0NmyDC2NJlsHodAtWq-156" value="&lt;b&gt;1&lt;/b&gt;" style="text;html=1;align=center;verticalAlign=middle;resizable=0;points=[];autosize=1;strokeColor=none;fillColor=none;" vertex="1" parent="1">
          <mxGeometry x="840" y="330" width="30" height="30" as="geometry" />
        </mxCell>
        <mxCell id="7t0NmyDC2NJlsHodAtWq-157" value="" style="endArrow=none;html=1;rounded=0;entryX=0.5;entryY=1;entryDx=0;entryDy=0;exitX=0.75;exitY=0;exitDx=0;exitDy=0;" edge="1" parent="1" source="7t0NmyDC2NJlsHodAtWq-110" target="7t0NmyDC2NJlsHodAtWq-153">
          <mxGeometry relative="1" as="geometry">
            <mxPoint x="580" y="510" as="sourcePoint" />
            <mxPoint x="740" y="510" as="targetPoint" />
          </mxGeometry>
        </mxCell>
        <mxCell id="7t0NmyDC2NJlsHodAtWq-158" value="&lt;b&gt;1&lt;/b&gt;" style="text;html=1;align=center;verticalAlign=middle;resizable=0;points=[];autosize=1;strokeColor=none;fillColor=none;" vertex="1" parent="1">
          <mxGeometry x="835" y="548" width="30" height="30" as="geometry" />
        </mxCell>
        <mxCell id="7t0NmyDC2NJlsHodAtWq-159" value="&lt;b&gt;state&lt;/b&gt;&lt;span id=&quot;docs-internal-guid-22aa97f3-7fff-5628-ff60-64329fbdb07a&quot;&gt;&lt;/span&gt;&lt;span id=&quot;docs-internal-guid-22aa97f3-7fff-5628-ff60-64329fbdb07a&quot;&gt;&lt;/span&gt;" style="ellipse;whiteSpace=wrap;html=1;align=center;" vertex="1" parent="1">
          <mxGeometry x="350" y="160" width="100" height="40" as="geometry" />
        </mxCell>
        <mxCell id="7t0NmyDC2NJlsHodAtWq-160" value="" style="endArrow=none;html=1;rounded=0;exitX=0.5;exitY=1;exitDx=0;exitDy=0;entryX=1;entryY=0;entryDx=0;entryDy=0;" edge="1" parent="1" source="7t0NmyDC2NJlsHodAtWq-159" target="7t0NmyDC2NJlsHodAtWq-4">
          <mxGeometry relative="1" as="geometry">
            <mxPoint x="515" y="283" as="sourcePoint" />
            <mxPoint x="396" y="220" as="targetPoint" />
          </mxGeometry>
        </mxCell>
        <mxCell id="7t0NmyDC2NJlsHodAtWq-161" value="&lt;b&gt;zip_code&lt;/b&gt;&lt;span id=&quot;docs-internal-guid-22aa97f3-7fff-5628-ff60-64329fbdb07a&quot;&gt;&lt;/span&gt;" style="ellipse;whiteSpace=wrap;html=1;align=center;" vertex="1" parent="1">
          <mxGeometry x="120" y="160" width="100" height="40" as="geometry" />
        </mxCell>
        <mxCell id="7t0NmyDC2NJlsHodAtWq-162" value="" style="endArrow=none;html=1;rounded=0;exitX=1;exitY=1;exitDx=0;exitDy=0;entryX=0.3;entryY=0;entryDx=0;entryDy=0;entryPerimeter=0;" edge="1" parent="1" source="7t0NmyDC2NJlsHodAtWq-161" target="7t0NmyDC2NJlsHodAtWq-4">
          <mxGeometry relative="1" as="geometry">
            <mxPoint x="185" y="274" as="sourcePoint" />
            <mxPoint x="66" y="211" as="targetPoint" />
          </mxGeometry>
        </mxCell>
        <mxCell id="7t0NmyDC2NJlsHodAtWq-163" value="&lt;b&gt;Is listed with&lt;/b&gt;" style="shape=rhombus;perimeter=rhombusPerimeter;whiteSpace=wrap;html=1;align=center;" vertex="1" parent="1">
          <mxGeometry x="460" y="280" width="120" height="60" as="geometry" />
        </mxCell>
        <mxCell id="7t0NmyDC2NJlsHodAtWq-164" value="" style="endArrow=none;html=1;rounded=0;entryX=1;entryY=0.5;entryDx=0;entryDy=0;exitX=0;exitY=0.5;exitDx=0;exitDy=0;" edge="1" parent="1" source="7t0NmyDC2NJlsHodAtWq-15" target="7t0NmyDC2NJlsHodAtWq-163">
          <mxGeometry relative="1" as="geometry">
            <mxPoint x="340" y="280" as="sourcePoint" />
            <mxPoint x="500" y="280" as="targetPoint" />
          </mxGeometry>
        </mxCell>
        <mxCell id="7t0NmyDC2NJlsHodAtWq-165" value="" style="shape=link;html=1;rounded=0;entryX=0;entryY=0.5;entryDx=0;entryDy=0;exitX=1;exitY=0.5;exitDx=0;exitDy=0;" edge="1" parent="1" source="7t0NmyDC2NJlsHodAtWq-1" target="7t0NmyDC2NJlsHodAtWq-163">
          <mxGeometry relative="1" as="geometry">
            <mxPoint x="340" y="280" as="sourcePoint" />
            <mxPoint x="500" y="280" as="targetPoint" />
          </mxGeometry>
        </mxCell>
        <mxCell id="7t0NmyDC2NJlsHodAtWq-167" value="&lt;b&gt;m&lt;/b&gt;" style="text;html=1;align=center;verticalAlign=middle;resizable=0;points=[];autosize=1;strokeColor=none;fillColor=none;" vertex="1" parent="1">
          <mxGeometry x="285" y="280" width="30" height="30" as="geometry" />
        </mxCell>
        <mxCell id="7t0NmyDC2NJlsHodAtWq-168" value="&lt;b&gt;1&lt;/b&gt;" style="text;html=1;align=center;verticalAlign=middle;resizable=0;points=[];autosize=1;strokeColor=none;fillColor=none;" vertex="1" parent="1">
          <mxGeometry x="735" y="280" width="30" height="30" as="geometry" />
        </mxCell>
        <mxCell id="7t0NmyDC2NJlsHodAtWq-170" value="&lt;b&gt;Owner_ID&lt;/b&gt;" style="ellipse;whiteSpace=wrap;html=1;align=center;fontStyle=4;" vertex="1" parent="1">
          <mxGeometry x="220" y="620" width="100" height="40" as="geometry" />
        </mxCell>
        <mxCell id="7t0NmyDC2NJlsHodAtWq-172" value="&lt;b&gt;Has&lt;/b&gt;" style="shape=rhombus;perimeter=rhombusPerimeter;whiteSpace=wrap;html=1;align=center;" vertex="1" parent="1">
          <mxGeometry x="180" y="400" width="120" height="60" as="geometry" />
        </mxCell>
        <mxCell id="7t0NmyDC2NJlsHodAtWq-173" value="" style="endArrow=none;html=1;rounded=0;entryX=0.5;entryY=1;entryDx=0;entryDy=0;exitX=0.5;exitY=0;exitDx=0;exitDy=0;" edge="1" parent="1" source="7t0NmyDC2NJlsHodAtWq-172" target="7t0NmyDC2NJlsHodAtWq-1">
          <mxGeometry relative="1" as="geometry">
            <mxPoint x="380" y="430" as="sourcePoint" />
            <mxPoint x="540" y="430" as="targetPoint" />
          </mxGeometry>
        </mxCell>
        <mxCell id="7t0NmyDC2NJlsHodAtWq-174" value="" style="shape=link;html=1;rounded=0;entryX=0.5;entryY=0;entryDx=0;entryDy=0;exitX=0.5;exitY=1;exitDx=0;exitDy=0;" edge="1" parent="1" source="7t0NmyDC2NJlsHodAtWq-172" target="7t0NmyDC2NJlsHodAtWq-95">
          <mxGeometry relative="1" as="geometry">
            <mxPoint x="380" y="430" as="sourcePoint" />
            <mxPoint x="540" y="430" as="targetPoint" />
          </mxGeometry>
        </mxCell>
        <mxCell id="7t0NmyDC2NJlsHodAtWq-176" value="&lt;b&gt;m&lt;/b&gt;" style="text;html=1;align=center;verticalAlign=middle;resizable=0;points=[];autosize=1;strokeColor=none;fillColor=none;" vertex="1" parent="1">
          <mxGeometry x="235" y="490" width="30" height="30" as="geometry" />
        </mxCell>
        <mxCell id="7t0NmyDC2NJlsHodAtWq-177" value="&lt;b&gt;m&lt;/b&gt;" style="text;html=1;align=center;verticalAlign=middle;resizable=0;points=[];autosize=1;strokeColor=none;fillColor=none;" vertex="1" parent="1">
          <mxGeometry x="235" y="330" width="30" height="30" as="geometry" />
        </mxCell>
        <mxCell id="7t0NmyDC2NJlsHodAtWq-178" value="&lt;b style=&quot;border-color: var(--border-color);&quot;&gt;Ownership percentage&lt;/b&gt;" style="ellipse;whiteSpace=wrap;html=1;align=center;" vertex="1" parent="1">
          <mxGeometry x="350" y="410" width="100" height="40" as="geometry" />
        </mxCell>
        <mxCell id="7t0NmyDC2NJlsHodAtWq-179" value="" style="endArrow=none;html=1;rounded=0;entryX=1;entryY=0.5;entryDx=0;entryDy=0;exitX=0;exitY=0.5;exitDx=0;exitDy=0;" edge="1" parent="1" source="7t0NmyDC2NJlsHodAtWq-178" target="7t0NmyDC2NJlsHodAtWq-172">
          <mxGeometry relative="1" as="geometry">
            <mxPoint x="440" y="420" as="sourcePoint" />
            <mxPoint x="600" y="420" as="targetPoint" />
          </mxGeometry>
        </mxCell>
      </root>
    </mxGraphModel>
  </diagram>
</mxfile>
